<svg xmlns="http://www.w3.org/2000/svg" version="1.1" xmlns:xlink="http://www.w3.org/1999/xlink" xmlns:svgjs="http://svgjs.dev/svgjs" width="1500" height="1500" viewBox="0 0 1500 1500"><rect width="1500" height="1500" fill="#000000"></rect><g transform="matrix(0.6666666666666666,0,0,0.6666666666666666,249.39393939393938,579.3081321268749)"><svg viewBox="0 0 396 135" data-background-color="#102e44" preserveAspectRatio="xMidYMid meet" height="511" width="1500" xmlns="http://www.w3.org/2000/svg" xmlns:xlink="http://www.w3.org/1999/xlink"><g id="tight-bounds" transform="matrix(1,0,0,1,0.2400000000000091,0.14208071293120383)"><svg viewBox="0 0 395.52 134.7158385741376" height="134.7158385741376" width="395.52"><g><svg viewBox="0 0 641.5063543401144 218.4998646732564" height="134.7158385741376" width="395.52"><g transform="matrix(1,0,0,1,0,30.19788288899565)"><svg viewBox="0 0 395.52 158.1040988952651" height="158.1040988952651" width="395.52"><g id="textblocktransform"><svg viewBox="0 0 395.52 158.1040988952651" height="158.1040988952651" width="395.52" id="textblock"><g><svg viewBox="0 0 395.52 116.43068192809933" height="116.43068192809933" width="395.52"><g transform="matrix(1,0,0,1,0,0)"><svg width="395.52" viewBox="-0.75 -37.43 155.06 45.65" height="116.43068192809933" data-palette-color="#ffffff"><path d="M26-32.48L23.55-29.13Q23.13-28.53 22.69-28.25 22.25-27.98 21.65-27.98L21.65-27.98Q21.08-27.98 20.5-28.35 19.93-28.73 19.21-29.18 18.5-29.63 17.57-30 16.65-30.38 15.4-30.38L15.4-30.38Q14.25-30.38 13.39-30.05 12.53-29.73 11.95-29.15 11.38-28.58 11.09-27.8 10.8-27.03 10.8-26.1L10.8-26.1Q10.8-25.1 11.36-24.43 11.93-23.75 12.86-23.24 13.8-22.73 14.98-22.3 16.15-21.88 17.39-21.38 18.63-20.88 19.81-20.23 21-19.58 21.94-18.6 22.88-17.63 23.44-16.25 24-14.88 24-12.95L24-12.95Q24-10.2 23.05-7.78 22.1-5.35 20.33-3.54 18.55-1.73 16.01-0.66 13.48 0.4 10.3 0.4L10.3 0.4Q8.72 0.4 7.14 0.05 5.55-0.3 4.09-0.94 2.63-1.58 1.38-2.45 0.13-3.33-0.75-4.4L-0.75-4.4 2.15-8.2Q2.48-8.63 3-8.9 3.53-9.18 4.05-9.18L4.05-9.18Q4.75-9.18 5.41-8.69 6.08-8.2 6.88-7.61 7.68-7.03 8.74-6.54 9.8-6.05 11.35-6.05L11.35-6.05Q13.63-6.05 14.86-7.29 16.1-8.53 16.1-10.95L16.1-10.95Q16.1-12.08 15.54-12.8 14.98-13.53 14.06-14.03 13.15-14.53 11.98-14.91 10.8-15.3 9.58-15.75 8.35-16.2 7.18-16.81 6-17.43 5.09-18.41 4.17-19.4 3.61-20.84 3.05-22.28 3.05-24.38L3.05-24.38Q3.05-26.8 3.96-29.04 4.88-31.28 6.58-33 8.28-34.73 10.7-35.75 13.13-36.77 16.15-36.77L16.15-36.77Q17.7-36.77 19.16-36.45 20.63-36.13 21.9-35.55 23.18-34.98 24.23-34.19 25.28-33.4 26-32.48L26-32.48ZM50.57-25.18L47.42 0 43.27 0Q42.55 0 42.06-0.19 41.57-0.38 41.28-0.7 41-1.03 40.88-1.48 40.77-1.93 40.77-2.45L40.77-2.45 40.77-4.3Q39.17-2.1 37.22-0.85 35.27 0.4 32.92 0.4L32.92 0.4Q31.52 0.4 30.22-0.16 28.92-0.73 27.92-1.86 26.92-3 26.32-4.76 25.72-6.53 25.72-8.93L25.72-8.93Q25.72-12.45 27.01-15.61 28.3-18.78 30.61-21.15 32.92-23.53 36.1-24.93 39.27-26.33 43.07-26.33L43.07-26.33Q44.92-26.33 46.82-26.08 48.72-25.83 50.57-25.18L50.57-25.18ZM36.02-5.73L36.02-5.73Q36.87-5.73 37.67-6.36 38.47-7 39.19-8.1 39.9-9.2 40.5-10.68 41.1-12.15 41.52-13.83L41.52-13.83 42.42-21 41.97-21Q40.07-21 38.51-20.15 36.95-19.3 35.82-17.84 34.7-16.38 34.09-14.44 33.47-12.5 33.47-10.3L33.47-10.3Q33.47-9.05 33.67-8.18 33.87-7.3 34.21-6.76 34.55-6.23 35.01-5.98 35.47-5.73 36.02-5.73ZM57.22-37.43L64.87-37.43 62.3-16.45 62.82-16.45Q63.47-16.45 63.87-16.65 64.27-16.85 64.67-17.38L64.67-17.38 70.02-24.68Q70.5-25.33 71.07-25.63 71.65-25.93 72.47-25.93L72.47-25.93 79.42-25.93 72.17-16.7Q71.67-16.05 71.07-15.55 70.47-15.05 69.82-14.68L69.82-14.68Q70.35-14.25 70.73-13.69 71.12-13.13 71.42-12.4L71.42-12.4 76.62 0 69.87 0Q69.05 0 68.51-0.29 67.97-0.58 67.67-1.3L67.67-1.3 64.07-10.48Q63.8-11.1 63.48-11.29 63.17-11.48 62.47-11.48L62.47-11.48 61.67-11.48 60.27 0 52.62 0 57.22-37.43ZM100.57-19.55L100.57-19.55Q100.57-17.78 99.87-16.3 99.17-14.83 97.43-13.69 95.69-12.55 92.76-11.75 89.82-10.95 85.37-10.5L85.37-10.5Q85.42-7.85 86.53-6.63 87.64-5.4 89.82-5.4L89.82-5.4Q90.84-5.4 91.59-5.58 92.34-5.75 92.91-6.03 93.47-6.3 93.92-6.6 94.37-6.9 94.78-7.18 95.19-7.45 95.64-7.63 96.09-7.8 96.67-7.8L96.67-7.8Q97.04-7.8 97.39-7.61 97.74-7.43 98.02-7.13L98.02-7.13 100.02-4.8Q98.64-3.45 97.33-2.46 96.02-1.48 94.63-0.84 93.24-0.2 91.68 0.1 90.12 0.4 88.27 0.4L88.27 0.4Q85.97 0.4 84.04-0.39 82.12-1.18 80.73-2.61 79.34-4.05 78.58-6.08 77.82-8.1 77.82-10.58L77.82-10.58Q77.82-12.65 78.28-14.63 78.74-16.6 79.61-18.34 80.47-20.08 81.72-21.54 82.97-23 84.53-24.05 86.09-25.1 87.96-25.69 89.82-26.28 91.92-26.28L91.92-26.28Q93.99-26.28 95.61-25.68 97.22-25.08 98.32-24.11 99.42-23.15 99.99-21.95 100.57-20.75 100.57-19.55ZM91.47-21.05L91.47-21.05Q89.54-21.05 88.09-19.51 86.64-17.98 85.92-15.3L85.92-15.3Q88.34-15.68 89.84-16.09 91.34-16.5 92.17-16.99 92.99-17.48 93.28-18.04 93.57-18.6 93.57-19.25L93.57-19.25Q93.57-19.9 93.07-20.48 92.57-21.05 91.47-21.05ZM124.77 0L117.02 0 118.97-16.48Q119.02-16.88 119.04-17.21 119.07-17.55 119.07-17.85L119.07-17.85Q119.07-19.18 118.6-19.69 118.14-20.2 117.22-20.2L117.22-20.2Q116.37-20.2 115.44-19.68 114.52-19.15 113.68-18.2 112.84-17.25 112.14-15.89 111.44-14.53 111.04-12.88L111.04-12.88 109.62 0 101.87 0 104.97-25.93 108.97-25.93Q110.17-25.93 110.84-25.36 111.52-24.8 111.52-23.53L111.52-23.53 111.52-21.45Q113.39-23.95 115.62-25.14 117.84-26.33 120.22-26.33L120.22-26.33Q121.67-26.33 122.88-25.8 124.09-25.28 124.97-24.26 125.84-23.25 126.34-21.78 126.84-20.3 126.84-18.38L126.84-18.38Q126.84-17.93 126.8-17.45 126.77-16.98 126.72-16.48L126.72-16.48 124.77 0ZM154.31-25.93L137.51 6.75Q137.11 7.53 136.53 7.88 135.94 8.22 135.11 8.22L135.11 8.22 129.31 8.22 135.24-2.33 128.81-25.93 135.36-25.93Q136.19-25.93 136.6-25.53 137.01-25.13 137.16-24.58L137.16-24.58 139.41-13.4Q139.56-12.68 139.69-11.96 139.81-11.25 139.89-10.53L139.89-10.53Q140.19-11.25 140.54-11.99 140.89-12.73 141.21-13.45L141.21-13.45 146.01-24.58Q146.31-25.15 146.89-25.54 147.46-25.93 148.06-25.93L148.06-25.93 154.31-25.93Z" opacity="1" transform="matrix(1,0,0,1,0,0)" fill="#ffffff" class="wordmark-text-0" data-fill-palette-color="primary" id="text-0"></path></svg></g></svg></g><g transform="matrix(1,0,0,1,163.310208,143.91717159495732)"><svg viewBox="0 0 232.209792 14.186927300307799" height="14.186927300307799" width="232.209792"><g transform="matrix(1,0,0,1,0,0)"><svg width="232.209792" viewBox="0.3 -39.2 860.87 52.6" height="14.186927300307799" data-palette-color="#ffffff"><path d="M21.25-0.5L21.25-0.5Q19.4 0.35 17.23 0.35 15.05 0.35 13.83-1.15 12.6-2.65 12.6-5.6L12.6-5.6 12.65-15.95 3.4-31.15Q2.15-33.15 0.3-33.3L0.3-33.3Q1.6-37.3 5.35-37.3L5.35-37.3Q7.25-37.3 8.63-36.08 10-34.85 11.45-32.45L11.45-32.45 17.2-23 22.8-30.25Q24.1-31.95 24.1-33.4 24.1-34.85 22.9-36.1L22.9-36.1Q25.3-37.3 27.43-37.3 29.55-37.3 30.95-36.2 32.35-35.1 32.35-33.1 32.35-31.1 30.5-28.8L30.5-28.8 20.45-16 20.4-4.75Q20.4-2.05 21.25-0.5ZM47.35-22.9L47.35-22.9Q43.05-22.9 43.05-15.4L43.05-15.4Q43.05-14.3 43.15-13.1L43.15-13.1Q43.75-3.25 48.65-3.25L48.65-3.25Q52.95-3.25 52.95-10.8L52.95-10.8Q52.95-11.85 52.85-13.1L52.85-13.1Q52.15-22.9 47.35-22.9ZM38.7-23.18Q42.25-26.7 48-26.7 53.75-26.7 57.3-23.18 60.85-19.65 60.85-13.1 60.85-6.55 57.27-3 53.7 0.55 47.97 0.55 42.25 0.55 38.7-3 35.15-6.55 35.15-13.1 35.15-19.65 38.7-23.18ZM91.45-20.75L91.45-20.75 91.45-5.15Q91.45-2.45 93.05-1.6L93.05-1.6Q91.25 0.55 88.5 0.55L88.5 0.55Q84.45 0.55 83.75-3.5L83.75-3.5Q81.2 0.55 76.67 0.55 72.15 0.55 69.65-1.75 67.15-4.05 67.15-8.45L67.15-8.45 67.15-21.05Q67.15-23.65 65.45-24.55L65.45-24.55Q67.34-26.7 69.97-26.7 72.59-26.7 73.8-25.25 75-23.8 75-20.75L75-20.75 75-9.25Q75-5.4 78.9-5.4L78.9-5.4Q82.25-5.4 83.59-9.2L83.59-9.2 83.59-21.05Q83.59-23.65 81.9-24.55L81.9-24.55Q83.8-26.7 86.42-26.7 89.05-26.7 90.25-25.25 91.45-23.8 91.45-20.75ZM98.94-5.4L98.94-5.4 98.94-21.05Q98.94-23.65 97.24-24.55L97.24-24.55Q99.14-26.7 101.84-26.7L101.84-26.7Q106.29-26.7 106.74-21.9L106.74-21.9Q108.74-26.7 113.39-26.7L113.39-26.7Q115.74-26.7 117.27-25.3 118.79-23.9 118.79-21.55 118.79-19.2 117.62-17.82 116.44-16.45 114.04-16.45L114.04-16.45Q113.74-16.45 112.74-16.55L112.74-16.55Q112.94-17.45 112.94-17.7L112.94-17.7Q112.94-18.95 112.22-19.68 111.49-20.4 110.44-20.4L110.44-20.4Q107.74-20.4 106.79-16.3L106.79-16.3 106.79-5.15Q106.79-2.45 108.44-1.6L108.44-1.6Q106.54 0.55 103.84 0.55L103.84 0.55Q98.94 0.55 98.94-5.4ZM165.84-29.9L165.84-29.9Q165.84-28.05 164.66-26.93 163.49-25.8 161.44-25.8 159.39-25.8 157.59-27.1L157.59-27.1Q157.99-27.9 157.99-29.18 157.99-30.45 156.51-31.45 155.04-32.45 152.31-32.45 149.59-32.45 147.84-31.45 146.09-30.45 146.09-28.78 146.09-27.1 148.21-25.68 150.34-24.25 153.36-22.93 156.39-21.6 159.41-20.05 162.44-18.5 164.56-16 166.69-13.5 166.69-10.4L166.69-10.4Q166.69-5.6 162.41-2.53 158.14 0.55 152.06 0.55 145.99 0.55 141.79-1.73 137.59-4 137.59-7.6L137.59-7.6Q137.59-9.7 139.06-10.95 140.54-12.2 142.61-12.2 144.69-12.2 146.69-10.6L146.69-10.6Q145.49-9.5 145.49-7.95 145.49-6.4 147.31-5.35 149.14-4.3 152.21-4.3 155.29-4.3 157.06-5.55 158.84-6.8 158.84-8.88 158.84-10.95 156.71-12.58 154.59-14.2 151.56-15.5 148.54-16.8 145.51-18.25 142.49-19.7 140.36-21.93 138.24-24.15 138.24-27L138.24-27Q138.24-31.7 142.34-34.5 146.44-37.3 152.39-37.3 158.34-37.3 162.09-35.2 165.84-33.1 165.84-29.9ZM184.38-16.55Q185.28-16.65 185.73-17.13 186.19-17.6 186.19-18.95 186.19-20.3 185.41-21.43 184.63-22.55 183.28-22.55 181.94-22.55 180.73-20.85 179.53-19.15 179.13-15.9L179.13-15.9 184.38-16.55ZM185.23-4.9L185.23-4.9Q189.38-4.9 192.19-8.05L192.19-8.05Q193.34-7.55 193.34-5.95L193.34-5.95Q193.34-3.55 190.49-1.5 187.63 0.55 183.78 0.55L183.78 0.55Q177.84 0.55 174.51-2.7 171.19-5.95 171.19-12.03 171.19-18.1 174.84-22.4 178.48-26.7 184.09-26.7L184.09-26.7Q188.38-26.7 191.19-23.93 193.99-21.15 193.99-17.6L193.99-17.6Q193.99-14.85 192.69-13.65 191.38-12.45 188.24-12.35L188.24-12.35 178.98-12.1Q179.34-4.9 185.23-4.9ZM219.83-20.75L219.83-20.75Q219.83-18.9 218.68-17.88 217.53-16.85 215.63-16.85 213.73-16.85 212.23-18L212.23-18Q212.38-18.6 212.38-19.6 212.38-20.6 211.81-21.4 211.23-22.2 210.23-22.2L210.23-22.2Q208.28-22.2 206.86-19.55 205.43-16.9 205.43-12.98 205.43-9.05 207.16-6.98 208.88-4.9 211.68-4.9L211.68-4.9Q215.83-4.9 218.63-8.05L218.63-8.05Q219.78-7.6 219.78-5.95L219.78-5.95Q219.78-3.4 216.96-1.43 214.13 0.55 210.23 0.55L210.23 0.55Q204.38 0.55 201.13-2.8 197.88-6.15 197.88-12.05 197.88-17.95 201.68-22.33 205.48-26.7 211.43-26.7L211.43-26.7Q214.78-26.7 217.31-25.08 219.83-23.45 219.83-20.75ZM236.23-22.9L236.23-22.9Q231.93-22.9 231.93-15.4L231.93-15.4Q231.93-14.3 232.03-13.1L232.03-13.1Q232.63-3.25 237.53-3.25L237.53-3.25Q241.83-3.25 241.83-10.8L241.83-10.8Q241.83-11.85 241.73-13.1L241.73-13.1Q241.03-22.9 236.23-22.9ZM227.58-23.18Q231.13-26.7 236.88-26.7 242.63-26.7 246.18-23.18 249.73-19.65 249.73-13.1 249.73-6.55 246.16-3 242.58 0.55 236.86 0.55 231.13 0.55 227.58-3 224.03-6.55 224.03-13.1 224.03-19.65 227.58-23.18ZM280.33-17.7L280.33-17.7 280.33-5.15Q280.33-2.45 281.93-1.6L281.93-1.6Q280.13 0.55 277.38 0.55L277.38 0.55Q272.48 0.55 272.48-5.4L272.48-5.4 272.48-16.55Q272.48-18.35 271.6-19.38 270.73-20.4 269.13-20.4 267.53-20.4 266.03-18.93 264.53-17.45 263.88-14.55L263.88-14.55 263.88-5.15Q263.88-2.45 265.53-1.6L265.53-1.6Q263.63 0.55 260.93 0.55L260.93 0.55Q256.03 0.55 256.03-5.4L256.03-5.4 256.03-21.05Q256.03-23.65 254.33-24.55L254.33-24.55Q256.23-26.7 258.78-26.7 261.33-26.7 262.53-25.43 263.73-24.15 263.88-21.5L263.88-21.5Q265.23-24.05 267.6-25.38 269.98-26.7 273.1-26.7 276.23-26.7 278.28-24.4 280.33-22.1 280.33-17.7ZM302.53-6.35L302.53-21.1Q301.38-22.4 299.13-22.4 296.88-22.4 295.2-19.93 293.53-17.45 293.53-13.1L293.53-13.1Q293.53-4.4 298.88-4.4L298.88-4.4Q301.23-4.4 302.53-6.35L302.53-6.35ZM310.38-33.25L310.38-33.25 310.38-5.15Q310.38-2.45 312.03-1.6L312.03-1.6Q310.13 0.55 307.43 0.55L307.43 0.55Q304.07 0.55 303.03-2.15L303.03-2.15Q301.93-0.9 300.2-0.18 298.48 0.55 296.82 0.55L296.82 0.55Q291.88 0.55 288.65-2.9 285.43-6.35 285.43-12.38 285.43-18.4 289.07-22.55 292.73-26.7 298.93-26.7L298.93-26.7Q300.68-26.7 302.53-26.3L302.53-26.3 302.53-33.55Q302.53-36.05 300.82-37.1L300.82-37.1Q302.73-39.2 305.43-39.2L305.43-39.2Q310.38-39.2 310.38-33.25ZM365.12-31.4L365.12-31.4 365.12-5.15Q365.12-2.45 366.72-1.6L366.72-1.6Q364.92 0.55 362.17 0.55L362.17 0.55Q357.27 0.55 357.27-5.4L357.27-5.4 357.27-16.15 341.37-16.15 341.37-5.15Q341.37-2.45 342.97-1.6L342.97-1.6Q341.07 0.55 338.47 0.55 335.87 0.55 334.67-0.9 333.47-2.35 333.47-5.4L333.47-5.4 333.47-31.7Q333.47-34.3 331.82-35.15L331.82-35.15Q333.62-37.3 336.37-37.3L336.37-37.3Q341.37-37.3 341.37-31.4L341.37-31.4 341.37-21.25 357.27-21.25 357.27-31.7Q357.27-34.25 355.57-35.15L355.57-35.15Q357.47-37.3 360.1-37.3 362.72-37.3 363.92-35.85 365.12-34.4 365.12-31.4ZM385.17-22.9L385.17-22.9Q380.87-22.9 380.87-15.4L380.87-15.4Q380.87-14.3 380.97-13.1L380.97-13.1Q381.57-3.25 386.47-3.25L386.47-3.25Q390.77-3.25 390.77-10.8L390.77-10.8Q390.77-11.85 390.67-13.1L390.67-13.1Q389.97-22.9 385.17-22.9ZM376.52-23.18Q380.07-26.7 385.82-26.7 391.57-26.7 395.12-23.18 398.67-19.65 398.67-13.1 398.67-6.55 395.09-3 391.52 0.55 385.79 0.55 380.07 0.55 376.52-3 372.97-6.55 372.97-13.1 372.97-19.65 376.52-23.18ZM445.72-17.7L445.72-17.7 445.72-5.15Q445.72-2.45 447.32-1.6L447.32-1.6Q445.52 0.55 442.77 0.55L442.77 0.55Q437.87 0.55 437.87-5.4L437.87-5.4 437.87-16.55Q437.87-18.35 436.99-19.38 436.12-20.4 434.52-20.4 432.92-20.4 431.42-18.98 429.92-17.55 429.27-14.75L429.27-14.75 429.27-5.15Q429.27-2.45 430.87-1.6L430.87-1.6Q429.07 0.55 426.32 0.55L426.32 0.55Q421.42 0.55 421.42-5.4L421.42-5.4 421.42-16.55Q421.42-18.35 420.54-19.38 419.67-20.4 418.07-20.4 416.47-20.4 414.97-18.93 413.47-17.45 412.82-14.55L412.82-14.55 412.82-5.15Q412.82-2.45 414.47-1.6L414.47-1.6Q412.57 0.55 409.87 0.55L409.87 0.55Q404.97 0.55 404.97-5.4L404.97-5.4 404.97-21.05Q404.97-23.65 403.27-24.55L403.27-24.55Q405.17-26.7 407.72-26.7 410.27-26.7 411.47-25.43 412.67-24.15 412.82-21.5L412.82-21.5Q414.17-24.05 416.54-25.38 418.92-26.7 421.69-26.7 424.47-26.7 426.37-25.2 428.27-23.7 428.92-20.85L428.92-20.85Q430.22-23.7 432.72-25.2 435.22-26.7 438.42-26.7 441.62-26.7 443.67-24.4 445.72-22.1 445.72-17.7ZM464.91-16.55Q465.81-16.65 466.26-17.13 466.71-17.6 466.71-18.95 466.71-20.3 465.94-21.43 465.16-22.55 463.81-22.55 462.46-22.55 461.26-20.85 460.06-19.15 459.66-15.9L459.66-15.9 464.91-16.55ZM465.76-4.9L465.76-4.9Q469.91-4.9 472.71-8.05L472.71-8.05Q473.86-7.55 473.86-5.95L473.86-5.95Q473.86-3.55 471.01-1.5 468.16 0.55 464.31 0.55L464.31 0.55Q458.36 0.55 455.04-2.7 451.71-5.95 451.71-12.03 451.71-18.1 455.36-22.4 459.01-26.7 464.61-26.7L464.61-26.7Q468.91-26.7 471.71-23.93 474.51-21.15 474.51-17.6L474.51-17.6Q474.51-14.85 473.21-13.65 471.91-12.45 468.76-12.35L468.76-12.35 459.51-12.1Q459.86-4.9 465.76-4.9ZM480.11 9.8L480.11 9.8Q483.81 6.95 483.81 2.73 483.81-1.5 480.31-3.6L480.31-3.6Q480.91-5.3 482.26-6.5 483.61-7.7 485.69-7.7 487.76-7.7 489.36-5.73 490.96-3.75 490.96-0.4L490.96-0.4Q490.96 4.15 487.96 7.8 484.96 11.45 482.06 11.45L482.06 11.45Q480.51 11.45 480.11 9.8ZM529.21-0.5L529.21-0.5Q527.36 0.35 525.18 0.35 523 0.35 521.78-1.15 520.56-2.65 520.56-5.6L520.56-5.6 520.61-15.95 511.36-31.15Q510.11-33.15 508.26-33.3L508.26-33.3Q509.56-37.3 513.31-37.3L513.31-37.3Q515.21-37.3 516.58-36.08 517.96-34.85 519.41-32.45L519.41-32.45 525.16-23 530.75-30.25Q532.06-31.95 532.06-33.4 532.06-34.85 530.86-36.1L530.86-36.1Q533.25-37.3 535.38-37.3 537.5-37.3 538.91-36.2 540.31-35.1 540.31-33.1 540.31-31.1 538.46-28.8L538.46-28.8 528.41-16 528.36-4.75Q528.36-2.05 529.21-0.5ZM555.3-22.9L555.3-22.9Q551-22.9 551-15.4L551-15.4Q551-14.3 551.1-13.1L551.1-13.1Q551.7-3.25 556.6-3.25L556.6-3.25Q560.9-3.25 560.9-10.8L560.9-10.8Q560.9-11.85 560.8-13.1L560.8-13.1Q560.1-22.9 555.3-22.9ZM546.65-23.18Q550.2-26.7 555.95-26.7 561.7-26.7 565.25-23.18 568.8-19.65 568.8-13.1 568.8-6.55 565.23-3 561.65 0.55 555.93 0.55 550.2 0.55 546.65-3 543.1-6.55 543.1-13.1 543.1-19.65 546.65-23.18ZM599.4-20.75L599.4-20.75 599.4-5.15Q599.4-2.45 601-1.6L601-1.6Q599.2 0.55 596.45 0.55L596.45 0.55Q592.4 0.55 591.7-3.5L591.7-3.5Q589.15 0.55 584.62 0.55 580.1 0.55 577.6-1.75 575.1-4.05 575.1-8.45L575.1-8.45 575.1-21.05Q575.1-23.65 573.4-24.55L573.4-24.55Q575.3-26.7 577.92-26.7 580.55-26.7 581.75-25.25 582.95-23.8 582.95-20.75L582.95-20.75 582.95-9.25Q582.95-5.4 586.85-5.4L586.85-5.4Q590.2-5.4 591.55-9.2L591.55-9.2 591.55-21.05Q591.55-23.65 589.85-24.55L589.85-24.55Q591.75-26.7 594.37-26.7 597-26.7 598.2-25.25 599.4-23.8 599.4-20.75ZM606.9-5.4L606.9-5.4 606.9-21.05Q606.9-23.65 605.2-24.55L605.2-24.55Q607.1-26.7 609.8-26.7L609.8-26.7Q614.25-26.7 614.7-21.9L614.7-21.9Q616.7-26.7 621.35-26.7L621.35-26.7Q623.7-26.7 625.22-25.3 626.75-23.9 626.75-21.55 626.75-19.2 625.57-17.82 624.4-16.45 622-16.45L622-16.45Q621.7-16.45 620.7-16.55L620.7-16.55Q620.9-17.45 620.9-17.7L620.9-17.7Q620.9-18.95 620.17-19.68 619.45-20.4 618.4-20.4L618.4-20.4Q615.7-20.4 614.75-16.3L614.75-16.3 614.75-5.15Q614.75-2.45 616.4-1.6L616.4-1.6Q614.5 0.55 611.8 0.55L611.8 0.55Q606.9 0.55 606.9-5.4ZM647.14-5.4L647.14-5.4 647.14-31.7Q647.14-34.3 645.49-35.15L645.49-35.15Q647.29-37.3 650.89-37.3L650.89-37.3Q655.29-37.3 657.94-32.9L657.94-32.9 671.74-10 671.74-31.7Q671.74-34.3 670.09-35.15L670.09-35.15Q671.89-37.3 674.64-37.3L674.64-37.3Q679.64-37.3 679.64-31.4L679.64-31.4 679.64-5.15Q679.64-2.3 680.59-0.9L680.59-0.9Q679.04 0.55 676.09 0.55 673.14 0.55 670.89-1.23 668.64-3 666.04-7.25L666.04-7.25 655.04-25.7 655.04-5.15Q655.04-2.45 656.64-1.6L656.64-1.6Q654.74 0.55 652.14 0.55 649.54 0.55 648.34-0.9 647.14-2.35 647.14-5.4ZM700.04-16.55Q700.94-16.65 701.39-17.13 701.84-17.6 701.84-18.95 701.84-20.3 701.06-21.43 700.29-22.55 698.94-22.55 697.59-22.55 696.39-20.85 695.19-19.15 694.79-15.9L694.79-15.9 700.04-16.55ZM700.89-4.9L700.89-4.9Q705.04-4.9 707.84-8.05L707.84-8.05Q708.99-7.55 708.99-5.95L708.99-5.95Q708.99-3.55 706.14-1.5 703.29 0.55 699.44 0.55L699.44 0.55Q693.49 0.55 690.16-2.7 686.84-5.95 686.84-12.03 686.84-18.1 690.49-22.4 694.14-26.7 699.74-26.7L699.74-26.7Q704.04-26.7 706.84-23.93 709.64-21.15 709.64-17.6L709.64-17.6Q709.64-14.85 708.34-13.65 707.04-12.45 703.89-12.35L703.89-12.35 694.64-12.1Q694.99-4.9 700.89-4.9ZM744.99-6L748.09-21.3Q748.39-22.85 748.39-24.05 748.39-25.25 747.99-25.9L747.99-25.9Q749.54-26.7 751.74-26.7 753.94-26.7 754.99-24.8L754.99-24.8Q755.59-23.75 755.59-22.63 755.59-21.5 755.29-20.45L755.29-20.45 750.99-5.75Q749.94-2.2 748.54-0.83 747.14 0.55 744.21 0.55 741.29 0.55 739.79-0.95 738.29-2.45 737.54-5.75L737.54-5.75 735.14-16.35 732.64-5.75Q731.79-2.3 730.24-0.88 728.69 0.55 725.54 0.55 722.39 0.55 720.91-0.8 719.44-2.15 718.44-5.75L718.44-5.75 714.69-19.7Q714.19-21.5 713.69-22.43 713.19-23.35 712.34-23.8L712.34-23.8Q714.19-26.7 717.49-26.7L717.49-26.7Q721.64-26.7 722.64-21.05L722.64-21.05 725.49-5.6 729.24-21.5Q729.94-24.45 731.41-25.58 732.89-26.7 735.54-26.7 738.19-26.7 739.74-25.55 741.29-24.4 741.84-21.5L741.84-21.5 744.99-6ZM776.28-8.35L776.28-8.35 776.28-31.7Q776.28-34.3 774.63-35.15L774.63-35.15Q776.43-37.3 779.18-37.3L779.18-37.3Q784.18-37.3 784.18-31.4L784.18-31.4 784.18-9.35Q784.18-5.8 787.28-5.8L787.28-5.8 792.43-5.8Q795.98-5.8 797.83-7.8L797.83-7.8Q799.03-6.95 799.03-4.98 799.03-3 797.46-1.5 795.88 0 792.88 0L792.88 0 785.38 0Q780.38 0 778.33-1.85 776.28-3.7 776.28-8.35ZM808.38-39.2Q810.33-39.2 811.6-38.02 812.88-36.85 812.88-34.93 812.88-33 811.25-31.4 809.63-29.8 807.53-29.8 805.43-29.8 804.15-31.03 802.88-32.25 802.88-34.25 802.88-36.25 804.65-37.73 806.43-39.2 808.38-39.2ZM811.98-20.75L811.98-20.75 811.98-5.15Q811.98-2.45 813.63-1.6L813.63-1.6Q811.73 0.55 809.03 0.55L809.03 0.55Q804.13 0.55 804.13-5.4L804.13-5.4 804.13-21.05Q804.13-23.65 802.43-24.55L802.43-24.55Q804.33-26.7 806.95-26.7 809.58-26.7 810.78-25.25 811.98-23.8 811.98-20.75ZM821.18-24.25L821.18-24.25 821.18-30.5Q821.18-34.55 823.65-36.88 826.13-39.2 830.18-39.2L830.18-39.2Q833.13-39.2 834.9-37.8 836.68-36.4 836.68-34.5 836.68-32.6 835.13-32.3L835.13-32.3Q833.58-34 831.78-34L831.78-34Q829.03-34 829.03-30.3L829.03-30.3 829.03-24.25 835.13-24.25Q835.48-23.85 835.48-23.2L835.48-23.2Q835.48-21.75 834.1-20.6 832.73-19.45 829.88-19.45L829.88-19.45 829.03-19.45 829.03 4.5Q829.03 9.05 827.05 11.23 825.08 13.4 821.93 13.4L821.93 13.4Q817.13 13.4 815.88 8.9L815.88 8.9Q818.98 8.9 820.08 7.6 821.18 6.3 821.18 3.2L821.18 3.2 821.18-19.5Q816.83-19.8 816.83-22.15L816.83-22.15Q816.83-23.6 817.93-24.35L817.93-24.35Q820.03-24.25 821.18-24.25ZM851.57-16.55Q852.47-16.65 852.92-17.13 853.37-17.6 853.37-18.95 853.37-20.3 852.6-21.43 851.82-22.55 850.47-22.55 849.12-22.55 847.92-20.85 846.72-19.15 846.32-15.9L846.32-15.9 851.57-16.55ZM852.42-4.9L852.42-4.9Q856.57-4.9 859.37-8.05L859.37-8.05Q860.52-7.55 860.52-5.95L860.52-5.95Q860.52-3.55 857.67-1.5 854.82 0.55 850.97 0.55L850.97 0.55Q845.02 0.55 841.7-2.7 838.37-5.95 838.37-12.03 838.37-18.1 842.02-22.4 845.67-26.7 851.27-26.7L851.27-26.7Q855.57-26.7 858.37-23.93 861.17-21.15 861.17-17.6L861.17-17.6Q861.17-14.85 859.87-13.65 858.57-12.45 855.42-12.35L855.42-12.35 846.17-12.1Q846.52-4.9 852.42-4.9Z" opacity="1" transform="matrix(1,0,0,1,0,0)" fill="#ffffff" class="slogan-text-1" data-fill-palette-color="secondary" id="text-1"></path></svg></g></svg></g></svg></g></svg></g><g transform="matrix(1,0,0,1,423.006489666858,0)"><svg viewBox="0 0 218.4998646732564 218.4998646732564" height="218.4998646732564" width="218.4998646732564"><g data-palette-color="#b2fcfb"><rect width="59.723296344023424" height="218.4998646732564" fill="#ffffff" stroke="transparent" data-fill-palette-color="accent" x="0" fill-opacity="1"></rect><rect width="59.723296344023424" height="218.4998646732564" fill="#ffffff" stroke="transparent" data-fill-palette-color="accent" x="72.83328822441881" fill-opacity="0.75"></rect><rect width="59.723296344023424" height="218.4998646732564" fill="#ffffff" stroke="transparent" data-fill-palette-color="accent" x="145.66657644883762" fill-opacity="0.5"></rect></g></svg></g></svg></g><defs></defs></svg><rect width="395.52" height="134.7158385741376" fill="none" stroke="none" visibility="hidden"></rect></g></svg></g></svg>